<?xml version="1.0" encoding="utf-8"?>
<!-- Generator: Adobe Illustrator 23.0.0, SVG Export Plug-In . SVG Version: 6.00 Build 0)  -->
<svg version="1.1" id="Capa_1" xmlns="http://www.w3.org/2000/svg" xmlns:xlink="http://www.w3.org/1999/xlink" x="0px" y="0px"
	 viewBox="0 0 512 512" style="enable-background:new 0 0 512 512;" xml:space="preserve">
<style type="text/css">
	.st0{fill:#686868;}
</style>
<g>
	<path class="st0" d="M0,226c0-49.6,40.4-90,90-90l302,0c66.2,0,120,53.8,120,120c0,66.2-53.8,120-120,120l-302,0l0-30l302,0
		c49.6,0,90-40.4,90-90s-40.4-90-90-90l-302,0c-33.1,0-60,26.9-60,60s26.9,60,60,60l242,0c16.5,0,30-13.5,30-30s-13.5-30-30-30
		l-242,0l0-30l242,0c33.1,0,60,26.9,60,60s-26.9,60-60,60l-242,0C40.4,316,0,275.6,0,226z"/>
</g>
</svg>
