<?xml version="1.0" encoding="utf-8"?>
<!-- Generator: Adobe Illustrator 23.0.0, SVG Export Plug-In . SVG Version: 6.00 Build 0)  -->
<svg version="1.1" id="Layer_1" xmlns="http://www.w3.org/2000/svg" xmlns:xlink="http://www.w3.org/1999/xlink" x="0px" y="0px"
	 viewBox="0 0 512 512" style="enable-background:new 0 0 512 512;" xml:space="preserve">
<style type="text/css">
	.st0{fill:#595959;}
	.st1{fill:#F2E21D;}
</style>
<circle class="st0" cx="255" cy="247.9" r="198"/>
<g>
	<g>
		<g>
			<path class="st1" d="M256,0C114.6,0,0,114.6,0,256s114.6,256,256,256s256-114.6,256-256S397.4,0,256,0z M377.7,184.2l-24.3,24.3
				L303.9,159l-18.8,18.8l49.5,49.5L213.2,348.7l-49.5-49.5L144.9,318l49.5,49.5l-12.1,12.1l-0.2-0.2c-1.3,2.2-3.5,3.8-6.1,4.4
				L129.8,394c-0.7,0.2-1.4,0.2-2.1,0.2c-2.5,0-5-1-6.8-2.8c-2.3-2.3-3.3-5.7-2.6-8.9l10.3-46.1c0.6-2.6,2.2-4.8,4.4-6.1l-0.2-0.2
				l195.4-195.4c2.9-2.9,7.5-2.9,10.4,0l39.1,39.1C380.6,176.7,380.6,181.4,377.7,184.2z"/>
		</g>
	</g>
</g>
</svg>
